<?xml version="1.0" standalone="no"?>
<!DOCTYPE svg PUBLIC "-//W3C//DTD SVG 20010904//EN"
 "http://www.w3.org/TR/2001/REC-SVG-20010904/DTD/svg10.dtd">
<svg version="1.0" xmlns="http://www.w3.org/2000/svg"
 width="217.000000pt" height="225.000000pt" viewBox="0 0 217.000000 225.000000"
 preserveAspectRatio="xMidYMid meet">

<g transform="translate(0.000000,225.000000) scale(0.100000,-0.100000)"
fill="#000000" stroke="none">
<path d="M716 2172 c-8 -14 48 -202 61 -202 21 0 21 14 -6 109 -24 87 -41 116
-55 93z"/>
<path d="M1401 2000 c-53 -94 -59 -110 -38 -110 14 1 107 160 107 184 0 34
-21 12 -69 -74z"/>
<path d="M823 1815 c-76 -21 -115 -39 -181 -84 -107 -72 -180 -178 -233 -336
-21 -64 -23 -83 -19 -220 8 -339 7 -364 -23 -429 -15 -32 -60 -113 -99 -180
-63 -105 -73 -127 -73 -169 0 -42 4 -52 31 -75 17 -15 38 -31 48 -37 16 -9 16
-13 0 -52 -16 -40 -16 -43 6 -87 17 -37 29 -48 60 -57 21 -6 49 -9 62 -6 27 7
72 45 79 66 4 10 15 9 47 -8 55 -28 94 -27 130 4 17 14 69 92 116 173 112 194
135 216 357 327 165 83 179 93 260 174 104 105 161 210 181 333 44 289 -162
588 -457 663 -73 19 -222 18 -292 0z m300 -40 c129 -34 249 -120 326 -236 53
-79 81 -157 90 -250 18 -172 -34 -311 -166 -446 -73 -74 -89 -85 -271 -177
-160 -82 -200 -107 -236 -147 -24 -27 -50 -49 -56 -49 -18 0 -420 232 -420
242 0 5 8 23 18 41 15 29 17 60 14 290 -2 207 0 270 12 318 53 206 183 352
365 410 72 23 244 25 324 4z m-537 -1222 c112 -64 204 -122 204 -129 0 -7 -15
-38 -32 -69 -24 -40 -38 -55 -50 -52 -33 9 -408 232 -408 244 0 17 63 123 74
123 5 0 101 -53 212 -117z m-93 -169 c111 -64 204 -118 206 -120 8 -7 -34 -76
-54 -90 -38 -27 -76 -16 -215 63 -220 124 -228 133 -189 215 12 27 29 48 36
48 8 0 105 -52 216 -116z m-93 -170 c61 -36 63 -40 32 -76 -21 -25 -86 -24
-112 2 -31 31 -23 110 11 110 5 0 35 -16 69 -36z"/>
<path d="M877 1649 c-60 -14 -139 -58 -184 -102 -42 -41 -52 -57 -34 -57 6 0
39 22 75 49 81 62 149 85 246 86 60 0 75 3 75 15 0 12 -15 15 -70 17 -38 1
-87 -3 -108 -8z"/>
<path d="M132 1718 c5 -15 157 -108 176 -108 35 0 3 34 -72 74 -85 47 -111 55
-104 34z"/>
<path d="M1840 1485 c-25 -7 -64 -19 -87 -25 -26 -6 -43 -17 -43 -25 0 -8 6
-15 13 -15 10 0 117 27 180 46 9 3 17 12 17 20 0 17 -21 17 -80 -1z"/>
<path d="M1632 848 c6 -17 175 -111 188 -103 16 10 5 20 -78 69 -77 45 -118
58 -110 34z"/>
</g>
</svg>
