<svg xmlns="http://www.w3.org/2000/svg" version="1.1" xmlns:xlink="http://www.w3.org/1999/xlink" xmlns:svgjs="http://svgjs.dev/svgjs" width="1440" height="663" preserveAspectRatio="none" viewBox="0 0 1440 663"><g mask="url(&quot;#SvgjsMask1232&quot;)" fill="none"><path d="M -708.7440030649924,548.5 C -612.74,476.3 -420.74,212.3 -228.74400306499243,187.5 C -36.74,162.7 59.26,442.5 251.25599693500757,424.5 C 443.26,406.5 539.26,63.5 731.2559969350076,97.5 C 923.26,131.5 1069.51,605.7 1211.2559969350075,594.5 C 1353,583.3 1394.25,152.1 1440,41.5" stroke="rgba(204, 144, 255, 1)" stroke-width="2"></path><path d="M -668.0425860209721,228.5 C -572.04,274.3 -380.04,456.7 -188.042586020972,457.5 C 3.96,458.3 99.96,220.1 291.957413979028,232.5 C 483.96,244.9 579.96,556.5 771.9574139790279,519.5 C 963.96,482.5 1118.35,63.1 1251.957413979028,47.5 C 1385.57,31.9 1402.39,362.7 1440,441.5" stroke="rgba(204, 144, 255, 1)" stroke-width="2"></path><path d="M -558.2567529252278,536.5 C -462.26,442.9 -270.26,75.7 -78.25675292522777,68.5 C 113.74,61.3 209.74,459.9 401.7432470747722,500.5 C 593.74,541.1 689.74,261.5 881.7432470747722,271.5 C 1073.74,281.5 1250.09,566.3 1361.7432470747722,550.5 C 1473.39,534.7 1424.35,264.1 1440,192.5" stroke="rgba(43, 214, 253, 1)" stroke-width="2"></path><path d="M -438.9009104925547,98.5 C -342.9,185.9 -150.9,519.3 41.09908950744529,535.5 C 233.1,551.7 329.1,218.7 521.0990895074453,179.5 C 713.1,140.3 809.1,337.1 1001.0990895074453,339.5 C 1193.1,341.9 1393.32,177.7 1481.0990895074453,191.5 C 1568.88,205.3 1448.22,365.1 1440,408.5" stroke="rgba(204, 144, 255, 1)" stroke-width="2"></path><path d="M -737.7225204356889,450.5 C -641.72,369.3 -449.72,27.1 -257.72252043568886,44.5 C -65.72,61.9 30.28,482.1 222.27747956431114,537.5 C 414.28,592.9 510.28,329.9 702.2774795643111,321.5 C 894.28,313.1 1034.73,545.1 1182.277479564311,495.5 C 1329.82,445.9 1388.46,157.9 1440,73.5" stroke="rgba(215, 42, 191, 1)" stroke-width="2"></path></g><defs><mask id="SvgjsMask1232"><rect width="1440" height="663" fill="#ffffff"></rect></mask></defs></svg>